<svg width="479" height="38" viewBox="0 0 479 38" fill="none" xmlns="http://www.w3.org/2000/svg">
<path d="M80.9634 37.279C69.6916 37.279 61.1539 29.7005 61.1539 18.7645C61.1539 7.82847 69.6916 0.25 80.9634 0.25C91.7076 0.25 99.382 6.82121 99.9575 16.654H88.2541C87.5346 13.3444 84.5608 10.9462 80.9634 10.9462C76.6466 10.9462 73.1931 14.4476 73.1931 18.7645C73.1931 23.0813 76.6466 26.5828 80.9634 26.5828C84.5608 26.5828 87.5346 24.1845 88.2541 20.875H99.9575C99.382 30.7078 91.7076 37.279 80.9634 37.279Z" fill="#FF3B00"/>
<path d="M37.8942 36.5115V1.01744H49.6456V26.0552H60.7256V36.5115H37.8942Z" fill="#FF3B00"/>
<path d="M0 36.5115V1.01744H14.1017L23.359 15.5508V1.01744H34.247V36.5115H21.872L10.8881 18.6686V36.5115H0Z" fill="#FF3B00"/>
<path d="M469.552 37.2789C463.604 37.2789 459.863 34.449 459.335 29.7964H464.036C464.66 32.2426 466.674 33.5377 469.456 33.5377C472.142 33.5377 473.965 32.0987 473.965 29.9403C473.965 28.2135 472.862 27.1103 470.415 26.3429L466.29 24.9999C462.453 23.7048 460.295 21.5944 460.295 17.8531C460.295 13.4403 464.036 10.3226 469.072 10.3226C474.396 10.3226 477.802 13.3444 478.282 17.6612H473.629C473.149 15.3589 471.423 14.0639 469.12 14.0639C466.482 14.0639 465.043 15.5508 465.043 17.3735C465.043 19.1482 466.242 20.2514 468.497 21.0188L472.238 22.2179C476.219 23.5609 478.713 25.6234 478.713 29.5566C478.713 34.2092 475.068 37.2789 469.552 37.2789Z" fill="#FF3B00"/>
<path d="M442.952 37.2789C434.941 37.2789 428.802 31.2833 428.802 23.8008C428.802 16.2703 434.894 10.3226 442.952 10.3226C450.77 10.3226 457.533 16.4142 456.766 25.1438H433.79C434.462 29.6045 438.299 33.058 442.952 33.058C446.837 33.058 449.523 31.1394 450.914 28.3574H455.998C454.415 33.6336 449.427 37.2789 442.952 37.2789ZM433.934 21.7862H451.729C450.962 17.7572 447.46 14.5435 442.904 14.5435C438.491 14.5435 434.846 17.6612 433.934 21.7862Z" fill="#FF3B00"/>
<path d="M413.705 36.5115V11.09H418.549V17.3255H418.645C419.653 12.7208 421.907 10.7063 425.84 10.7063C426.799 10.7063 427.471 10.8502 428.094 10.9941V15.4069H425.552C421.044 15.4069 418.741 18.1409 418.741 21.6903V36.5115H413.705Z" fill="#FF3B00"/>
<path d="M395.117 37.2789C390.081 37.2789 386.436 33.7775 386.436 27.542V11.09H391.472V26.7746C391.472 30.1801 393.151 32.9621 396.94 32.9621C400.777 32.9621 403.032 30.1801 403.032 26.7266V11.09H408.068V36.5115H403.224V31.1394H403.128C401.785 35.3603 398.907 37.2789 395.117 37.2789Z" fill="#FF3B00"/>
<path d="M378.313 36.7034C373.229 36.7034 370.111 34.7368 370.111 28.6452V15.215H364.835V11.09H370.111V4.90255L375.148 3.79936V11.09H382.87V15.215H375.148V27.4941C375.148 31.0435 376.586 32.4345 379.512 32.4345C380.472 32.4345 381.527 32.2906 382.966 31.9548V36.1278C381.335 36.5115 379.944 36.7034 378.313 36.7034Z" fill="#FF3B00"/>
<path d="M340.633 36.5115V11.09H345.478V16.4621H345.574C346.917 12.2412 349.939 10.3226 353.728 10.3226C358.764 10.3226 362.553 13.824 362.553 20.1075V36.5115H357.517V20.8749C357.517 17.4214 355.598 14.6394 351.809 14.6394C347.972 14.6394 345.67 17.4214 345.67 20.8749V36.5115H340.633Z" fill="#FF3B00"/>
<path d="M322.571 37.2789C314.561 37.2789 308.421 31.2833 308.421 23.8008C308.421 16.2703 314.513 10.3226 322.571 10.3226C330.389 10.3226 337.152 16.4142 336.385 25.1438H313.409C314.081 29.6045 317.918 33.058 322.571 33.058C326.456 33.058 329.142 31.1394 330.533 28.3574H335.617C334.034 33.6336 329.046 37.2789 322.571 37.2789ZM313.553 21.7862H331.348C330.581 17.7572 327.079 14.5435 322.523 14.5435C318.11 14.5435 314.465 17.6612 313.553 21.7862Z" fill="#FF3B00"/>
<path d="M310.842 1.01739L295.589 36.5115H291.608L276.355 1.01739H281.775L293.766 29.5086L305.758 1.01739H310.842Z" fill="#FF3B00"/>
<path d="M242.455 36.5115V1.01739H247.491V16.5101H247.587C248.69 12.4331 251.808 10.3226 255.597 10.3226C260.634 10.3226 264.375 13.824 264.375 20.1075V36.5115H259.339V20.8749C259.339 17.4214 257.468 14.6394 253.679 14.6394C249.842 14.6394 247.491 17.4214 247.491 20.8749V36.5115H242.455Z" fill="#FF3B00"/>
<path d="M233.95 36.7034C228.866 36.7034 225.748 34.7368 225.748 28.6452V15.215H220.472V11.09H225.748V4.90255L230.784 3.79936V11.09H238.506V15.215H230.784V27.4941C230.784 31.0435 232.223 32.4345 235.149 32.4345C236.108 32.4345 237.163 32.2906 238.602 31.9548V36.1278C236.972 36.5115 235.581 36.7034 233.95 36.7034Z" fill="#FF3B00"/>
<path d="M212.43 36.5115V1.01739H217.466V36.5115H212.43Z" fill="#FF3B00"/>
<path d="M191.722 37.2789C184.383 37.2789 178.532 31.4752 178.532 23.7528C178.532 16.0784 184.383 10.3226 191.722 10.3226C196.422 10.3226 200.404 13.3444 201.747 18.1409H201.843V11.09H206.783V36.5115H201.843V29.4606H201.747C200.404 34.2571 196.422 37.2789 191.722 37.2789ZM183.52 23.8008C183.52 28.8371 187.645 33.01 192.729 33.01C197.766 33.01 201.89 28.8371 201.89 23.8008C201.89 18.7644 197.766 14.5915 192.729 14.5915C187.645 14.5915 183.52 18.7644 183.52 23.8008Z" fill="#FF3B00"/>
<path d="M161.766 37.2789C153.756 37.2789 147.617 31.2833 147.617 23.8008C147.617 16.2703 153.708 10.3226 161.766 10.3226C169.585 10.3226 176.348 16.4142 175.58 25.1438H152.605C153.276 29.6045 157.114 33.058 161.766 33.058C165.651 33.058 168.337 31.1394 169.728 28.3574H174.813C173.23 33.6336 168.242 37.2789 161.766 37.2789ZM152.749 21.7862H170.544C169.776 17.7572 166.275 14.5435 161.718 14.5435C157.306 14.5435 153.66 17.6612 152.749 21.7862Z" fill="#FF3B00"/>
<path d="M138.07 36.5115V20.5871H118.357V36.5115H113.321V1.01739H118.357V16.1743H138.07V1.01739H143.107V36.5115H138.07Z" fill="#FF3B00"/>
</svg>
